<svg xmlns="http://www.w3.org/2000/svg" viewBox="0 0 120 120" width="120" height="120" style="width: 256px; height: 256px">
  <path d="m53 53.5c0 5.3-4.1 10.5-10.3 10.5-5.3 0-10.7-3.5-11.1-10-0.3-5 3.8-11.3 10.8-11.3 5.4 0 10.6 3.8 10.6 10.8z" fill="#FFFFFF" />
  <path d="m66.7 53.5c0 5.3 4.1 10.5 10.3 10.5 5.3 0 10.7-3.5 11.2-10 0.4-5-3.8-11.3-10.8-11.3-5.4 0-10.7 3.8-10.7 10.8z" fill="#FFFFFF" />
  <path d="m42.6 64.8c-5.6 0-10.4-4.1-11.7-9.8-0.5-2.7 0.3-6 2.2-8.3 2.1-2.6 5.2-4.8 9.6-4.8 5.7 0 11.1 4.2 11.2 11.2 0 5.8-4.4 11.7-11.3 11.7zm0-21.3c-3.4 0-6 1.7-7.6 3.5-1.6 2-2.6 4.7-2.3 7.6 0.8 5 4.8 8.7 9.8 8.7 5.7 0 9.7-4.3 9.8-9.8 0-5.4-3.9-10-9.7-10z" fill="#010101" />
  <path d="m77.6 64.8c-6.6 0-11.6-4.8-11.6-11.3 0-6 4.6-11.6 11.4-11.6 5.8 0 11.7 4.2 11.7 11.6 0 6.1-5 11.3-11.5 11.3zm-0.4-21.3c-5.2 0-9.7 4-9.7 9.9 0 5.4 3.9 9.9 10 9.9 5.1 0 9.6-3.7 10.1-9.3 0.4-5.3-4.2-10.5-10.4-10.5z" fill="#010101" />
  <path d="m45.4 45.7c-3.9 0-7.4 3-7.4 7.4 0.3 3.5 2.7 6.7 7.4 7 3.5 0.1 7.5-2.5 7.5-7 0-3.7-2.8-7.4-7.5-7.4z" fill="#010101" />
  <path d="m46.9 47.9c-1.4 0-2.9 1.1-2.9 3 0 1.5 1.4 2.9 2.9 2.9 1.6 0 2.9-1.3 2.9-2.9 0-1.5-1.2-3-2.9-3z" fill="#FFFFFF" />
  <path d="m42.9 55.5c-0.7 0.1-1.5 0.6-1.5 1.4s0.6 1.5 1.5 1.5c0.7 0 1.4-0.6 1.4-1.5 0-0.8-0.7-1.5-1.4-1.4z" fill="#FFFFFF" />
  <path d="m80.4 45.7c-3.5 0-7 2.9-7 7.4 0 3.5 2.7 6.7 6.5 7 4.3 0.4 8-2.3 8.3-7 0.2-3.7-3-7.4-7.8-7.4z" fill="#010101" />
  <path d="m82 47.9c-1.5 0-2.9 1.5-2.9 3.1 0 1.4 1.4 2.8 3 2.8 1.5 0 2.9-1.3 2.9-2.8 0.1-1.8-1.4-3.1-3-3.1z" fill="#FFFFFF" />
  <path d="m77.7 55.5c-0.7 0.1-1.2 0.6-1.2 1.4s0.6 1.4 1.4 1.4c0.7 0 1.3-0.6 1.3-1.4s-0.6-1.5-1.5-1.4z" fill="#FFFFFF" />
  <path d="m30.7 40.6c0.2-1.4 4.3-5.1 7.9-6.1 3.6-0.8 5.2-0.6 6.5 0 0.4 0.1 0.4 0.7 0 0.7-2.4 0.4-8.2 1.5-14.2 5.3-0.2 0.2-0.3 0.2-0.2 0.1z" fill="#010101" />
  <path d="m89.3 40.1c-1.2-2.1-4.3-5-8.8-5.9-3.6-0.5-6.4 0.4-5.7 1.2 1.3 0.3 8.6 0.7 14.6 4.5 0.1 0.6 0 0.6-0.1 0.2z" fill="#010101" />
  <path d="m37 66.3c-4 0-8.2 1.3-8.2 3.9 0 2.3 3.3 4 8.2 4.1 4.2 0 8.6-1.3 8.7-3.8 0-2.9-4.3-4.1-8.7-4.2z" fill="#F3879F" />
  <path d="m82.6 66.3c-3.6 0-8.2 1.3-8.3 3.8s3.4 4.1 8.3 4.2c4.1 0 8.5-1.3 8.6-3.8 0-2.5-3.7-4.2-8.6-4.2z" fill="#F3879F" />
  <path d="m53 70.5c0.4 2.1 3 4.5 6.9 4.5 4.1 0 6.8-2.3 7-4.5" fill="none" stroke="#010101" stroke-width="1.609" stroke-linecap="round" stroke-linejoin="round" stroke-miterlimit="10" />
  <path d="m57.9 63.3c-0.3-0.5-1.3-0.3-1 0.5 0.1 0.8 1.5 0.3 1-0.5z" fill="#CDA787" />
  <path d="m54.5 61.2c-0.4-0.6-1.4-0.3-1 0.6 0.4 0.8 1.2 0.1 1-0.6z" fill="#CDA787" />
  <path d="m52.2 63.5c-0.5-0.5-1.3-0.1-1 0.6 0.4 0.7 1.4 0 1-0.6z" fill="#CDA787" />
  <path d="m56.9 59.2c-0.7-0.6-1.5 0.3-0.8 1 0.6 0.5 1.4-0.4 0.8-1z" fill="#CDA787" />
  <path d="m60 56.6c-1 0-1.6 1-0.5 1.3 0.9 0.2 1.2-1 0.5-1.3z" fill="#CDA787" />
  <path d="m61.2 59.8c-0.5 0.4-0.5 1.2 0.4 1.1 0.9-0.3 0.1-1.5-0.4-1.1z" fill="#CDA787" />
  <path d="m63.8 62.8c-1.1-0.2-1.9 1.2-0.3 1.2 0.5-0.1 0.6-1 0.3-1.2z" fill="#CDA787" />
  <path d="m64.4 57.7-0.9 0.2 0.1 0.1 0.8-0.3z" fill="#CDA787" />
  <path d="m65.2 59.7c-0.8-0.1-1.6 1.2-0.3 1.3 0.7 0 0.7-1.1 0.3-1.3z" fill="#CDA787" />
  <path d="m68.1 63.3c-0.7 0.2-1.1 1.1-0.1 1.1 0.9 0 0.9-1.1 0.1-1.1z" fill="#CDA787" />
</svg>