<svg xmlns="http://www.w3.org/2000/svg" viewBox="0 0 120 121" width="120" height="121" style="width: 255px; height: 256px">
  <ellipse cx="59.9" cy="75.9" rx="8.7" ry="9.7" fill="#27142A" />
  <path d="m55.7 83.3c1.3 1 2.6 1.5 4.3 1.4 2.1 0 3.7-0.7 5-2.3-0.3-2.6-4.4-3.8-5.2-0.5-0.3-0.2-0.1-0.9 0.1-1.4-1.6-0.9-4.3-0.1-4.2 2.8z" fill="#F0867A" />
  <path d="m59.4 83.2" fill="#EE8478" />
  <ellipse cx="41.7" cy="66.4" rx="7.5" ry="4.6" fill="#FCE3C3" />
  <ellipse cx="78.2" cy="66.3" rx="7.5" ry="4.6" fill="#FCE3C3" />
  <path d="m53 53.3c0 5.3-4.1 10.2-10.2 10.2-5.4 0-10.2-4.3-10.7-9.7-0.2-5.1 4.1-10.9 10.7-10.9 5.4-0.1 10.1 4 10.2 10.4z" fill="none" stroke="#010202" stroke-width="1.5" stroke-miterlimit="10" />
  <path d="m33 52.4c-0.7 4.9 3.2 10.5 9.7 10.5 4.6 0.1 9.8-3.2 9.6-10-0.1-0.9-0.2-2.4-1-3.9l-2.4-0.1-7 0.6-6.5 1.8-2.4 1.1z" fill="#FFFFFF" />
  <path d="m34.9 51.7c-1 5.2 3.2 9.3 7.8 9.3 4 0.1 8.7-3 7.7-9.6-0.2-0.9-0.4-1.7-1.4-2.5l-5.5 0.6-4.5 0.9-4.1 1.3z" />
  <path d="m32.3 52.8" fill="none" stroke="#FFFFFF" stroke-width="1.604" stroke-miterlimit="10" />
  <path d="m31.4 40.5c-0.3 0.7 0.7-0.1 1.4-0.5 3.3-1.9 5.9-3.1 11.8-4.2 2.8-0.2-1.1-2-5.6-0.9-3.9 0.7-7 3.9-7.6 5.6z" fill="#4F2925" />
  <path d="m66.8 53.2c-0.1 4.8 4 10.4 10.7 10.3 5.4 0.1 10.4-4 10.4-10.2 0.1-4.7-3.8-10.4-10.4-10.4-5.9-0.1-10.7 4.4-10.7 10.3z" fill="none" stroke="#010202" stroke-width="1.5" stroke-miterlimit="10" />
  <path d="m68.6 49c-0.7 1.2-0.9 2.8-0.9 4.3 0 5.3 4.2 9.5 9.7 9.6 4.4 0.1 9.5-3.3 9.8-8.7v-1.7l-4.4-1.6-6-1.3-6-0.6h-2.2z" fill="#FFFFFF" />
  <path d="m70.7 49c-0.9 1.4-1.2 2.9-1.1 4.5 0.2 3.8 3.4 7.5 7.8 7.5 3.7 0.1 8-2.7 7.9-8.1l-0.2-1.5-3.3-1.1-3.7-0.6-3.5-0.4-3.9-0.3z" />
  <path d="m74.9 35.6c-0.9 0.6 0.8 0.3 3.9 1 3.7 0.7 6.8 2 9.2 3.5 1.4 1 1.1 0.4-0.2-1.4-1-1.1-2.9-2.8-5.3-3.5-3-1-6.4-0.7-7.6 0v0.4z" fill="#4F2925" />
  <path d="m62.2 35.5 4.8-0.5-4.2 6.4 5.3-0.7" fill="none" stroke="#4F2925" stroke-width="1.119" stroke-linecap="round" stroke-linejoin="round" stroke-miterlimit="10" />
  <path d="m57.1 43.2 3.2-0.5-2.6 4.4 3.3-0.5" fill="none" stroke="#4F2925" stroke-width="0.987" stroke-linecap="round" stroke-linejoin="round" stroke-miterlimit="10" />
  <path d="m59.5 56.1c-0.9 0.1-0.9 1.4 0.2 1.3 0.8-0.2 0.7-1.3-0.2-1.3z" fill="#ECD4B3" />
  <path d="m56.4 58.5c-0.8 0.2-0.8 1.4 0.2 1.3 0.9-0.1 0.8-1.3-0.2-1.3z" fill="#ECD4B3" />
  <path d="m54 60.4c-0.8 0.1-0.8 1.3 0.1 1.2 0.8-0.1 0.7-1.2-0.1-1.2z" fill="#ECD4B3" />
  <path d="m51.7 62.8c-0.8 0.1-0.7 1.3 0.3 1.1 0.6-0.2 0.6-1.2-0.3-1.1z" fill="#ECD4B3" />
  <path d="m60.8 59.2c-0.6 0.6 0.4 1.6 0.9 0.9 0.6-0.6-0.3-1.3-0.9-0.9z" fill="#ECD4B3" />
  <path d="m56.8 62.7c-0.4 0.7 0.8 1.3 1.2 0.6 0.3-0.8-0.9-1.4-1.2-0.6z" fill="#ECD4B3" />
  <path d="m62.5 62.7c-0.3 0.8 1.3 1.3 1.5 0.3 0.1-0.8-1.3-1.1-1.5-0.3z" fill="#ECD4B3" />
  <path d="m64.2 59.6c-0.3 0.9 1.3 1.3 1.3 0.2 0-0.7-1.1-0.9-1.3-0.2z" fill="#ECD4B3" />
  <path d="m67.3 63.2c-0.2 0.8 1.2 1 1.3 0.2s-1.1-0.8-1.3-0.2z" fill="#ECD4B3" />
  <path d="m63 57.3" fill="none" stroke="#010202" stroke-width="0.262" stroke-linecap="round" stroke-linejoin="round" stroke-miterlimit="10" />
  <path d="m63.2 57.3c0 0.5 0.5-0.1 0 0z" fill="#ECD4B3" />
  <path d="m63.7 57.3c0 0.4 0.4 0.2 0 0z" fill="#ECD4B3" />
  <path d="m63.9 57.4c0.1 0.5 0.6 0 0 0z" fill="#ECD4B3" />
  <path d="m43.5 49.5c-0.9 3.4 2.8 5.3 4.9 3.3 1.5-1.3 1-3.5 0.3-3.9l-5.2 0.6z" fill="#FFFFFF" />
  <path d="m38.1 56c-0.8 1.6 0.6 3.9 2.8 3.1 2.5-1.1 1.6-4.4-1-4.1l-1.1 0.4-0.7 0.6z" fill="#FFFFFF" />
  <path d="m70.7 49" fill="#FFFFFF" />
  <path d="m78 49.9c-0.8 3.8 4.6 5.5 6 1.4-1.8-0.6-3.7-1.1-6-1.4z" fill="#FFFFFF" />
  <path d="m73.4 55.3c-1.8 1.3-0.9 4.2 1.6 3.9 2.7-0.6 2.1-4.8-1.1-4.1l-0.5 0.2z" fill="#FFFFFF" />
</svg>