<svg xmlns="http://www.w3.org/2000/svg" viewBox="0 0 150 150" width="150" height="150" style="width: 256px; height: 256px">
  <path d="m38.4 50.5c-0.6 1.1 0.6 0.4 0.6 0.4 6.5-4 13.9-6.2 17.3-6.7 0.8-0.1 0.7-0.8-0.2-1-2.8-1.1-9.9-1.8-15.9 4.4-0.9 1-1.5 1.9-1.8 2.9z" fill="#010101" />
  <path d="m111.5 48.8c0.6 0.8 0.4 0.8 0.1 0.6-5.1-3.2-11.2-4.4-17.9-5.3-0.6 0-0.8-0.8 0.6-1 2.8-0.9 10.8-1.9 17.2 5.7z" fill="#010101" />
  <path d="m40.9 71.7c-1.8-0.1-2.7-2.1-1.6-3.4 2.2-2.7 6.4-6.4 12.9-6.5 6.1-0.1 10.1 2.6 13.4 6.3 1.9 2.1-0.9 5-3 2.6-1.9-2.2-5.5-4.8-9.9-4.9-3.4 0-7.2 1.8-10.1 5.1-0.4 0.5-1 0.8-1.7 0.8z" fill="#030204" />
  <path d="m51.9 77.9c4.9-0.1 9.5 2.1 9.5 5.7-0.2 3.1-4.1 5.7-9.9 5.7-4.9-0.1-9.5-1.9-9.5-5.7 0.1-3.1 4.2-5.6 9.9-5.7z" fill="#DCB0C0" />
  <path d="m97.9 78.6c4.7-0.2 9.7 1.5 9.7 4.9-0.2 3.1-4.6 5.8-9.7 5.7-4.9-0.1-9.3-1.9-9.3-5.6 0.1-3 3.9-5 9.3-5z" fill="#DCB0C0" />
  <path d="m67.7 88c3.2 1.2 8.6 2.4 16.2-0.4 1.8-0.7 3.2 0 3.2 2.4 0 2.5-2.6 7.9-7.5 8.9-3.1 0.6-5.7 0.6-9.5-0.2s-7.2-5.1-7.4-8.6c0-1.6 0.9-3.5 2.9-2.7l2.1 0.6z" fill="#28142A" />
  <path d="m68.1 96.9c0.1-2 3.3-3 6-1.8 0.9 0.4 1.9-0.2 3-0.4 1.7-0.3 4.6 0.2 4.3 2.9-0.1 3.1-1.6 9.2-7.9 9-4.6-0.7-5.5-5.1-5.4-9.7z" fill="#F36F75" />
  <path d="m74.2 95.3c-0.3 3.7 0.1 8.3 1 8.1 0.5 0 0.5-8.1 0.4-8.1-0.4 0-0.9 0.1-1.4 0z" fill="#D34853" />
  <path d="m74.2 96.1" fill="#F37076" />
  <path d="m74.2 70.7c1.2-0.1 1.3 1.6 0.1 1.7-1 0-1.3-1.5-0.1-1.7z" fill="#E0BCA9" />
  <path d="m70.3 73.9c1.1-0.1 1.2 1.5 0.1 1.5-0.8 0-1.1-1.3-0.1-1.5z" fill="#E0BCA9" />
  <path d="m67.3 76.3c1-0.1 1.1 1.4 0.1 1.4-0.8-0.1-0.9-1.2-0.1-1.4z" fill="#E0BCA9" />
  <path d="m64.6 79.1c0.9 0 1 1.4 0 1.4-0.8 0-0.9-1.3 0-1.4z" fill="#E0BCA9" />
  <path d="m71.7 78.7c1-0.1 1.1 1.4 0 1.4-0.8 0-1-1.3 0-1.4z" fill="#E0BCA9" />
  <path d="m76.4 74.6c1-0.4 1.4 1.2 0.3 1.4-0.6 0-1.1-1-0.3-1.4z" fill="#E0BCA9" />
  <path d="m80.5 74.9c0.8-0.8 1.9 0.4 0.8 1.3-1 0.4-1.7-0.6-0.8-1.3z" fill="#E0BCA9" />
  <path d="m78.5 78.7c0.9-0.8 2.1 0.7 0.6 1.4-0.8 0.1-1.4-0.9-0.6-1.4z" fill="#E0BCA9" />
  <path d="m84.6 79.3c0.8-0.7 1.7 0.9 0.4 1.2-0.6 0-1-0.6-0.4-1.2z" fill="#E0BCA9" />
  <path d="m96.9 52.5c7.7-0.2 14.7 5.4 14.7 14.5 0 5.3-3.8 12.8-13.3 14-9.9 0.6-16-6.4-16-14 0.2-6.5 5.4-14.1 14.6-14.5z" fill="#040305" />
  <path d="m97 54.5c6.2-0.1 12.5 4.2 12.6 12.6 0 5-4.2 12.1-13 12.1-5.7 0-12.4-4.1-12.4-12.4 0.2-7 6.1-12.2 12.8-12.3z" fill="#FFFFFF" />
  <path d="m96.5 56.7c6.1-0.3 10.5 4.3 10.6 10 0 3.7-3.5 10.1-10.4 10.1-5.8 0-9.9-4.8-9.8-10.1 0.1-5.5 4.4-10 9.6-10z" fill="#010101" />
  <path d="m96.9 56.5" fill="#E2B9C6" />
  <circle cx="101.4" cy="63.9" r="3.8" fill="#FEFEFE" />
  <circle cx="93.4" cy="72" r="2.7" fill="#FEFEFE" />
</svg>