<svg xmlns="http://www.w3.org/2000/svg" viewBox="0 0 140 140" width="140" height="140" style="width: 256px; height: 256px">
  <path d="m35.2 46.4c1.6-2.6 6.1-5.9 9.2-6.8 3.9-1.1 7.9-1.2 8.7 0.4-0.9 0.6-4.5 0.6-10.4 2.7-3.1 1-6.9 3.3-7.5 3.7z" fill="#010101" />
  <path d="m105.2 45.8c-1.7-2.4-5.5-5.9-9.9-6.6-3.5-0.6-7.7-0.5-8 0.9 0.3 0.6 4.3 0.4 9.5 2 4.1 0.9 8.1 3.2 8.4 3.7z" fill="#010101" />
  <path d="m38.8 77.9c-2.1 0.3-5.8 1.2-5.8 4 0 2.6 3.5 4.6 9.6 4.6s10.6-1.5 10.6-4c0.1-3.4-6.5-5.5-14.4-4.6z" fill="#F0879F" />
  <path d="m91.3 77.9c-2.1 0.6-4.5 1.5-4.5 4.1s3.5 4.5 9.9 4.5c6.1 0 10.2-1.6 10.2-4.3 0.2-3.6-7.4-6.2-15.6-4.3z" fill="#F0879F" />
  <path d="m47.2 43c-9.5 0-20.2 7.5-20.3 19.7 0 9.5 6.8 19.8 20 19.9 11.3 0.1 19.7-7.9 19.6-19.6-0.1-8.6-7.9-19.9-19.3-20zm-0.3 36.6c-8.8-0.1-16.8-7.1-16.8-16.4 0-7.5 6.4-17 16.8-17 8.8 0 16.6 6.3 16.6 16.8 0 8.3-6.6 16.7-16.6 16.6z" fill="#34373A" />
  <path d="m92.8 43c-9.6 0-18.6 7.6-19.4 16.9-2.4-0.9-5.2-1-7.2 0l-0.2 3.3c2.5-1.4 4.7-1.9 7.1-0.4-0.1 8.7 6.5 19.6 19.3 19.8 10.4 0.2 20.2-6.8 20.2-18.8 0.1-10.5-8-20.8-19.8-20.8zm0.2 36.6c-9.9 0-17.1-7.1-17.2-16.5 0-7.5 6.3-16.9 16.7-16.8 8-0.3 16.8 5.5 17.1 16.4-0.2 9.8-7.4 16.9-16.6 16.9z" fill="#414045" />
  <path d="m49.3 50.3c-6 0.1-11.8 4.9-11.8 12.1 0 5.5 4.5 11.6 11.9 11.6 7.5 0 12.1-5.5 12-11.7-0.1-7.2-5.9-12-12.1-12z" fill="#FFFFFF" />
  <path d="m49.6 48.3c-6.8 0-14.2 5.9-14.3 13.8 0 6 5.7 13.4 13.2 13.5 8.4 0.6 14.3-5.1 14.4-13.4-0.1-6.2-4.7-13.9-13.3-13.9zm-0.2 25.5c-6.6-0.1-11.9-5.2-11.9-11.4 0-6.1 4.9-12 11.9-12 4.4 0 8.3 2.1 10.2 6.1-1.6-2-3.7-3.3-6.5-3.3-4.8 0-9.1 3.4-9.1 8.4 0 4 3.2 8.3 9.3 8.3 3.1 0 5.6-1.3 7.1-3.6-1.5 4.3-5.6 7.6-11 7.5zm2.1-7.4c0 1-0.7 1.7-1.6 1.7-1 0-1.8-0.7-1.8-1.6s0.8-1.7 1.8-1.7c0.8-0.1 1.6 0.7 1.6 1.6zm2.4-10.5c2.3-0.5 4 1.1 4 3.4 0 1.6-1.3 3.4-3.3 3.3-1.8-0.1-3.4-1.4-3.4-3.4 0-1.8 1.1-3 2.7-3.3z" fill="#010101" />
  <path d="m90.1 50.4c-5.5-0.1-11.4 4.1-11.4 11.6 0 6.5 4.5 11.8 11.7 11.8 7.4 0.1 12.2-5.1 12.2-11.8 0-5.5-5-11.6-12.5-11.6z" fill="#FFFFFF" />
  <path d="m90.4 48.3c-7.6 0-13.5 6.1-13.5 13.7 0 7.3 5 13.6 13 13.6 8.5 0.4 14.6-5.2 14.7-13.4 0.2-7.2-5.6-13.9-14.2-13.9zm0 25.5c-6.7 0-11.7-4.9-11.7-11.8 0-6 4-11.6 11.4-11.6 3.7 0 7.8 1.4 11.1 6-1.6-1.9-3.6-3.2-6.8-3.2-4.8 0-8.5 3.8-8.5 8.5 0 4 2.8 8.2 8.5 8.2 3.8 0.1 6.7-1.4 8-4.1-1.5 4.8-5.8 8-12 8zm2.1-7.4c0 0.9-0.7 1.6-1.6 1.6-0.8 0-1.5-0.6-1.5-1.6 0-0.8 0.7-1.7 1.5-1.7 0.9 0 1.6 0.8 1.6 1.7zm3.6-10.5c1.6-0.2 3.4 1.1 3.4 3.1 0 2.2-1.4 3.6-3.4 3.6-1.6 0-3.5-1.3-3.5-3.2 0-1.8 1.5-3.7 3.5-3.5z" fill="#010101" />
  <path d="m55.2 84.5c0 6.8 5 13 10.4 14.9 1.3 0.5 4.3 1.7 8.8 0.5 3.6-1 10.4-5 10.5-15.4-3.2 1-7.3 2-14.7 2-6.5 0-9.6-0.7-15-2z" fill="#C16358" />
  <path d="m55.9 85.1c0.3 4.3 2.6 7.4 4.5 10.4 1.4-2.5 4.6-4.1 9.6-4.1 4.5 0 8.1 1.2 9.2 3.5 2.4-2 4.8-5.8 5-9.9-3.2 1.2-7.7 2.1-14.2 2.1-5.9 0-10.2-0.6-14.1-2z" fill="#D47062" />
  <path d="m60.5 95.5c2.1 2.1 5.2 4.2 9.8 4.2 3.2 0 6.8-1.2 9.1-3.9-1.2-2.3-4.8-4.4-9.6-4.4-5 0-8.2 1.6-9.3 4.1z" fill="#F99081" />
  <path d="m56 84.4c-0.9-0.3-1.1 0.3-1.1 1 0.5 6.8 5.7 14.2 14.7 15.3 9.1 0 15.1-6.2 15.5-15.3 0-1-0.4-1.4-1.3-1-2.8 0.7-6.3 2-13.8 2-6.3 0-9.9-0.9-14-2z" fill="none" stroke="#010101" stroke-width="1.911" stroke-miterlimit="10" />
  <path d="m65.5 61.9c2.1-1.3 6.1-2.2 8.6-0.2" fill="none" stroke="#34373A" stroke-width="3.185" stroke-linecap="round" stroke-linejoin="round" stroke-miterlimit="10" />
  <path d="m66 69.8-0.1 0.1" fill="none" stroke="#C69D7D" stroke-width="1.377" stroke-linecap="round" stroke-miterlimit="10" />
  <path d="m66.9 74.2-0.1 0.1" fill="none" stroke="#C69D7D" stroke-width="1.377" stroke-linecap="round" stroke-miterlimit="10" />
  <path d="m69.5 66.7 0.1 0.1" fill="none" stroke="#C69D7D" stroke-width="1.377" stroke-linecap="round" stroke-miterlimit="10" />
  <path d="m71.4 70.5 0.1-0.1" fill="none" stroke="#C69D7D" stroke-width="1.377" stroke-linecap="round" stroke-miterlimit="10" />
  <path d="m73.6 74h0.2" fill="none" stroke="#C69D7D" stroke-width="1.377" stroke-linecap="round" stroke-miterlimit="10" />
</svg>